REM DIRINDEX 1\2,1\3,1\4,1\5,1\6
REM DIRNAME folder01,folder02,folder03,folder04,folder05,folder06
TITLE ""
FILE "Disc4Track70.mp3" MP3
  TRACK 01 AUDIO
    TITLE "3:cjc030_08137"
    INDEX 01 00:00:00
  TRACK 02 AUDIO
    TITLE "0:"
    INDEX 01 00:01:19
  TRACK 03 AUDIO
    TITLE "4:cjc030_08138"
    INDEX 01 00:01:28
  TRACK 04 AUDIO
    TITLE "0:"
    INDEX 01 00:02:30
  TRACK 05 AUDIO
    TITLE "5:cjc030_08139"
    INDEX 01 00:02:38
  TRACK 06 AUDIO
    TITLE "0:"
    INDEX 01 00:03:57
  TRACK 07 AUDIO
    TITLE "6:cjc030_08140"
    INDEX 01 00:03:70
  TRACK 08 AUDIO
    TITLE "0:"
    INDEX 01 00:05:57
  TRACK 09 AUDIO
    TITLE "3:cjc030_08141"
    INDEX 01 00:06:30
  TRACK 10 AUDIO
    TITLE "0:"
    INDEX 01 00:07:39
  TRACK 11 AUDIO
    TITLE "4:cjc030_08142"
    INDEX 01 00:07:47
  TRACK 12 AUDIO
    TITLE "0:"
    INDEX 01 00:10:02
  TRACK 13 AUDIO
    TITLE "5:cjc030_08143"
    INDEX 01 00:10:10
  TRACK 14 AUDIO
    TITLE "0:"
    INDEX 01 00:11:21
  TRACK 15 AUDIO
    TITLE "3:cjc030_08144"
    INDEX 01 00:11:74
  TRACK 16 AUDIO
    TITLE "0:"
    INDEX 01 00:13:16
  TRACK 17 AUDIO
    TITLE "4:cjc030_08145"
    INDEX 01 00:13:26
  TRACK 18 AUDIO
    TITLE "0:"
    INDEX 01 00:14:23
  TRACK 19 AUDIO
    TITLE "5:cjc030_08146"
    INDEX 01 00:14:33
  TRACK 20 AUDIO
    TITLE "0:"
    INDEX 01 00:15:50
  TRACK 21 AUDIO
    TITLE "6:cjc030_08147"
    INDEX 01 00:15:62
  TRACK 22 AUDIO
    TITLE "0:"
    INDEX 01 00:17:69
  TRACK 23 AUDIO
    TITLE "3:cjc030_08148"
    INDEX 01 00:18:41
  TRACK 24 AUDIO
    TITLE "0:"
    INDEX 01 00:19:65
  TRACK 25 AUDIO
    TITLE "4:cjc030_08149"
    INDEX 01 00:20:00
  TRACK 26 AUDIO
    TITLE "0:"
    INDEX 01 00:21:04
  TRACK 27 AUDIO
    TITLE "5:cjc030_08150"
    INDEX 01 00:21:13
  TRACK 28 AUDIO
    TITLE "0:"
    INDEX 01 00:22:36
  TRACK 29 AUDIO
    TITLE "3:cjc030_08151"
    INDEX 01 00:23:18
  TRACK 30 AUDIO
    TITLE "0:"
    INDEX 01 00:24:27
  TRACK 31 AUDIO
    TITLE "4:cjc030_08152"
    INDEX 01 00:24:35
  TRACK 32 AUDIO
    TITLE "0:"
    INDEX 01 00:25:56
  TRACK 33 AUDIO
    TITLE "5:cjc030_08153"
    INDEX 01 00:25:66
  TRACK 34 AUDIO
    TITLE "0:"
    INDEX 01 00:26:73
  TRACK 35 AUDIO
    TITLE "3:cjc030_08154"
    INDEX 01 00:27:53
  TRACK 36 AUDIO
    TITLE "0:"
    INDEX 01 00:29:03
  TRACK 37 AUDIO
    TITLE "4:cjc030_08155"
    INDEX 01 00:29:13
  TRACK 38 AUDIO
    TITLE "0:"
    INDEX 01 00:30:40
  TRACK 39 AUDIO
    TITLE "5:cjc030_08156"
    INDEX 01 00:30:48
  TRACK 40 AUDIO
    TITLE "0:"
    INDEX 01 00:32:00
  TRACK 41 AUDIO
    TITLE "3:cjc030_08157"
    INDEX 01 00:32:54
  TRACK 42 AUDIO
    TITLE "0:"
    INDEX 01 00:33:58
  TRACK 43 AUDIO
    TITLE "4:cjc030_08158"
    INDEX 01 00:33:66
  TRACK 44 AUDIO
    TITLE "0:"
    INDEX 01 00:34:45
  TRACK 45 AUDIO
    TITLE "5:cjc030_08159"
    INDEX 01 00:34:55
  TRACK 46 AUDIO
    TITLE "0:"
    INDEX 01 00:35:59
  TRACK 47 AUDIO
    TITLE "6:cjc030_08160"
    INDEX 01 00:35:70
  TRACK 48 AUDIO
    TITLE "0:"
    INDEX 01 00:37:40
  TRACK 49 AUDIO
    TITLE "3:cjc030_08161"
    INDEX 01 00:38:12
  TRACK 50 AUDIO
    TITLE "0:"
    INDEX 01 00:39:13
  TRACK 51 AUDIO
    TITLE "4:cjc030_08162"
    INDEX 01 00:39:23
  TRACK 52 AUDIO
    TITLE "0:"
    INDEX 01 00:40:09
  TRACK 53 AUDIO
    TITLE "5:cjc030_08163"
    INDEX 01 00:40:19
  TRACK 54 AUDIO
    TITLE "0:"
    INDEX 01 00:41:20
  TRACK 55 AUDIO
    TITLE "6:cjc030_08164"
    INDEX 01 00:41:34
  TRACK 56 AUDIO
    TITLE "0:"
    INDEX 01 00:42:70
  TRACK 57 AUDIO
    TITLE "3:cjc030_08165"
    INDEX 01 00:43:42
  TRACK 58 AUDIO
    TITLE "0:"
    INDEX 01 00:45:02
  TRACK 59 AUDIO
    TITLE "4:cjc030_08166"
    INDEX 01 00:45:12
  TRACK 60 AUDIO
    TITLE "0:"
    INDEX 01 00:46:21
  TRACK 61 AUDIO
    TITLE "5:cjc030_08167"
    INDEX 01 00:46:29
  TRACK 62 AUDIO
    TITLE "0:"
    INDEX 01 00:47:64
  TRACK 63 AUDIO
    TITLE "3:cjc030_08168"
    INDEX 01 00:48:46
  TRACK 64 AUDIO
    TITLE "0:"
    INDEX 01 00:49:65
  TRACK 65 AUDIO
    TITLE "4:cjc030_08169"
    INDEX 01 00:49:72
  TRACK 66 AUDIO
    TITLE "0:"
    INDEX 01 00:50:46
  TRACK 67 AUDIO
    TITLE "5:cjc030_08170"
    INDEX 01 00:50:58
  TRACK 68 AUDIO
    TITLE "0:"
    INDEX 01 00:52:00
  TRACK 69 AUDIO
    TITLE "3:cjc030_08171"
    INDEX 01 00:52:55
  TRACK 70 AUDIO
    TITLE "0:"
    INDEX 01 00:53:72
  TRACK 71 AUDIO
    TITLE "4:cjc030_08172"
    INDEX 01 00:54:09
  TRACK 72 AUDIO
    TITLE "0:"
    INDEX 01 00:54:64
  TRACK 73 AUDIO
    TITLE "5:cjc030_08173"
    INDEX 01 00:54:74
  TRACK 74 AUDIO
    TITLE "0:"
    INDEX 01 00:56:18
  TRACK 75 AUDIO
    TITLE "3:cjc030_08174"
    INDEX 01 00:56:72
  TRACK 76 AUDIO
    TITLE "0:"
    INDEX 01 00:58:13
  TRACK 77 AUDIO
    TITLE "4:cjc030_08175"
    INDEX 01 00:58:22
  TRACK 78 AUDIO
    TITLE "0:"
    INDEX 01 00:59:02
  TRACK 79 AUDIO
    TITLE "5:cjc030_08176"
    INDEX 01 00:59:12
  TRACK 80 AUDIO
    TITLE "0:"
    INDEX 01 01:00:25
  TRACK 81 AUDIO
    TITLE "3:cjc030_08177"
    INDEX 01 01:01:09
  TRACK 82 AUDIO
    TITLE "0:"
    INDEX 01 01:02:20
  TRACK 83 AUDIO
    TITLE "4:cjc030_08178"
    INDEX 01 01:02:28
  TRACK 84 AUDIO
    TITLE "0:"
    INDEX 01 01:03:39
  TRACK 85 AUDIO
    TITLE "5:cjc030_08179"
    INDEX 01 01:03:43
  TRACK 86 AUDIO
    TITLE "0:"
    INDEX 01 01:04:58
